<?xml version="1.0" encoding="iso-8859-1"?>
<!-- Generator: Adobe Illustrator 19.0.0, SVG Export Plug-In . SVG Version: 6.00 Build 0)  -->
<svg version="1.1" id="Layer_1" xmlns="http://www.w3.org/2000/svg" xmlns:xlink="http://www.w3.org/1999/xlink" x="0px" y="0px"
	 viewBox="0 0 508 508" style="enable-background:new 0 0 508 508;" xml:space="preserve" fill='#fff'>
<g>
	<g>
		<path d="M378.764,0H129.18C57.952,0,0,57.964,0,129.212v249.576C0,450.036,57.952,508,129.18,508h249.584
			C450.024,508,508,450.036,508,378.792v-249.58C508,57.964,450.024,0,378.764,0z M500,378.792
			c0,66.836-54.388,121.212-121.236,121.212H129.18C62.36,500.004,8,445.628,8,378.792v-249.58C8,62.376,62.36,8,129.18,8h249.584
			C445.616,8,500,62.376,500,129.212V378.792z"/>
	</g>
</g>
<g>
	<g>
		<path d="M480.192,253.968c-2.208,0-4,1.792-4,4v112.02c0,57.568-48.632,106.204-106.2,106.204H138.004
			c-57.564,0-106.196-48.636-106.196-106.204V138c0-57.56,48.632-106.192,106.196-106.192H369.08c2.208,0,4-1.792,4-4s-1.792-4-4-4
			H138.004C76.104,23.808,23.808,76.1,23.808,138v231.988c0,61.904,52.296,114.204,114.196,114.204h231.988
			c61.904,0,114.2-52.3,114.2-114.204v-112.02C484.192,255.76,482.4,253.968,480.192,253.968z"/>
	</g>
</g>
<g>
	<g>
		<path d="M449.808,58.188c-21.848-21.848-51.276-34.38-80.732-34.38c-2.208,0-4,1.792-4,4s1.792,4,4,4
			c27.352,0,54.716,11.676,75.076,32.036c0.78,0.78,1.804,1.172,2.828,1.172s2.048-0.392,2.828-1.172
			C451.372,62.28,451.372,59.752,449.808,58.188z"/>
	</g>
</g>
<g>
	<g>
		<path d="M480.192,166.668c-2.208,0-4,1.792-4,4v59.524c0,2.208,1.792,4,4,4s4-1.792,4-4v-59.524
			C484.192,168.46,482.4,166.668,480.192,166.668z"/>
	</g>
</g>
<g>
	<g>
		<path d="M330.652,329.372h-60.82c-40.924,0-46.172-17.364-46.172-32.492c0-7.384,0.428-20.156,0.88-33.68l0.04-1.228h97.752
			c39.852,0,48.216-24.084,48.216-44.284c0-28.184-16.308-43.084-47.164-43.084h-37.636c-2.208,0-4,1.792-4,4c0,2.208,1.792,4,4,4
			h37.636c26.72,0,39.164,11.152,39.164,35.084c0,24.756-12.78,36.284-40.216,36.284h-101.62c-2.16,0-3.928,1.712-4,3.868
			l-0.168,5.092c-0.472,14.184-0.884,26.432-0.884,33.948c0,27.248,17.72,40.492,54.172,40.492h60.816
			c11.672,0,33.74,8.084,33.74,38.668c0,27.468-27.144,30.432-38.812,30.432c-5.008,0-20.724-0.332-37.364-0.684
			c-19.712-0.416-42.056-0.888-50.588-0.888c-11.612,0-93.18-21.856-93.18-110.048c0-9.848-0.016-19.712-0.028-29.572l-0.02-18.068
			c-0.04-7.076-0.128-14.164-0.216-21.244c-0.096-7.66-0.188-15.308-0.22-22.908c0-4.284-0.016-8.568-0.056-12.828
			c-0.016-3.676-0.08-7.428-0.144-11.224c-0.332-19.276-0.672-39.208,5.208-56.544c4.484-13.252,14.66-19.696,31.108-19.696
			c23.86,0,37.708,12.408,37.892,75.844c0.004,2.204,1.796,3.988,4,3.988h8.224c2.208,0,4-1.792,4-4c0-2.208-1.792-4-4-4h-4.24
			c-0.164-33.256-2.012-79.832-45.876-79.832c-19.748,0-33.124,8.692-38.684,25.128c-6.324,18.656-5.972,39.292-5.632,59.248
			c0.064,3.764,0.132,7.48,0.144,11.144c0.04,4.26,0.056,8.52,0.056,12.788c0.032,7.64,0.128,15.312,0.224,22.992
			c0.088,7.06,0.176,14.128,0.212,21.168l0.02,18.052c0.016,9.856,0.028,19.716,0.028,29.56c0,88.528,79.756,118.048,101.18,118.048
			c8.448,0,30.748,0.468,50.42,0.884c16.684,0.352,32.444,0.684,37.536,0.684c10.98,0,46.812-2.772,46.812-38.424
			C372.392,341.8,347.428,329.372,330.652,329.372z"/>
	</g>
</g>
<g>
</g>
<g>
</g>
<g>
</g>
<g>
</g>
<g>
</g>
<g>
</g>
<g>
</g>
<g>
</g>
<g>
</g>
<g>
</g>
<g>
</g>
<g>
</g>
<g>
</g>
<g>
</g>
<g>
</g>
</svg>
